<?xml version="1.0" encoding="UTF-8"?>
<svg id="Optimizely_Primary_Logo_Medium" data-name="Optimizely Primary Logo Medium" xmlns="http://www.w3.org/2000/svg" viewBox="0 0 740 254">
  <defs>
    <style>
      .cls-1 {
        fill: #abff44;
      }

      .cls-2 {
        fill: #0d3a29;
      }
    </style>
  </defs>
  <path class="cls-1" d="M267.653,62.0583h-27.0992v18.9211h-9.5222v19.6536h9.5222v38.9407c0,14.2815,6.1031,20.1418,20.1417,20.1418h17.5784v-19.6536h-7.5691c-2.0752,0-3.0518-.7324-3.0518-2.8075v-36.6215h10.6208v-19.6536h-10.6208v-18.9211Z"/>
  <path class="cls-1" d="M396.0726,79.6367c-7.2029,0-14.0386,2.8076-19.7755,8.6665-2.6866-6.2251-7.9354-8.6665-15.6254-8.6665-6.5928,0-12.8179,2.8076-18.3108,8.6665v-7.3237h-25.7566v78.7361h27.0992v-57.8619c.8545-1.2206,2.4413-1.953,4.3943-1.953,2.6854,0,3.9061,1.0985,3.9061,3.906v55.9089h27.1006v-57.8619c.8544-1.2206,2.4412-1.953,4.3943-1.953,2.6853,0,3.906,1.0985,3.906,3.906v55.9089h27.0994v-59.8149c0-13.5503-6.4694-20.2639-18.4316-20.2639Z"/>
  <path class="cls-1" d="M300.4906,54.7346h-6.2264c-6.2252,0-10.8636,4.8826-10.8636,10.9856,0,5.9812,4.6384,10.9871,10.8636,10.9871h6.2264c6.2253,0,10.8638-5.0059,10.8638-10.9871,0-6.103-4.6384-10.9856-10.8638-10.9856Z"/>
  <rect class="cls-1" x="283.8888" y="80.9795" width="27.0994" height="78.736"/>
  <path class="cls-1" d="M202.7116,79.5146c-6.8357,0-12.3297,3.1737-16.2358,8.7886-.1221-2.6853-.3661-5.1266-.6102-7.3237h-26.4891c.2441,6.1031.3662,12.0842.3662,18.1887v85.3274h27.0994v-29.9067c4.0281,4.1501,9.156,6.3472,15.2593,6.3472,17.3342,0,27.0994-14.7708,27.0994-40.2834,0-25.8787-9.521-41.1379-26.489-41.1379ZM193.7997,141.5267c-4.8826-.1219-7.5681-7.8134-7.5681-20.63,0-12.9399,2.6855-21.4844,7.5681-21.4844,5.0057-.1221,7.8132,8.4224,7.8132,21.4844,0,12.6947-2.8075,20.5081-7.8132,20.63Z"/>
  <path class="cls-1" d="M112.0121,60.2274c-25.8788,0-42.6028,19.4093-42.6028,50.0486,0,31.1288,16.724,50.7821,42.6028,50.7821,25.7578,0,42.4805-19.6533,42.4805-50.7821,0-30.6393-16.7227-50.0486-42.4805-50.0486ZM111.89,138.2311c-7.6901,0-12.8167-10.7428-12.8167-27.9551,0-16.724,5.1266-27.2214,12.8167-27.2214,7.5691,0,12.8179,10.4974,12.8179,27.2214,0,17.2123-5.2488,27.9551-12.8179,27.9551Z"/>
  <rect class="cls-1" x="420.1205" y="80.9795" width="27.0994" height="78.736"/>
  <path class="cls-1" d="M654.7404,103.5625l-2.8074,21.6064-3.2959-21.2402-4.8826-22.9492h-27.5876l22.2168,78.4919-.7322,3.1736c-.2441,1.3428-1.2207,2.0751-2.4414,2.0751h-14.8928v19.7755h19.2871c13.427,0,20.1418-5.859,23.4375-18.5549l22.0947-84.9612h-26.3669l-4.0293,22.583Z"/>
  <rect class="cls-1" x="583.9397" y="62.0583" width="27.0994" height="97.6571"/>
  <path class="cls-1" d="M544.6327,79.5146c-21.8506,0-36.3774,16.1138-36.3774,40.7717,0,25.1465,14.0386,40.7717,36.2554,40.7717,18.5549,0,31.739-12.3296,33.9363-29.908h-26.8564c-.9766,6.8368-4.1503,10.8649-7.8123,10.8649-5.0045,0-7.812-6.1031-8.3003-16.8461h43.213c3.0516-26.6111-11.109-45.6543-34.0582-45.6543ZM535.4779,110.5201c1.3428-7.568,4.5164-12.0844,8.5444-12.0844s6.9578,4.3943,8.1783,12.0844h-16.7228Z"/>
  <polygon class="cls-1" points="505.692 99.9006 505.692 80.9795 452.8347 80.9795 452.8347 100.6331 475.9072 100.6331 452.8347 141.6488 452.8347 159.7156 506.1802 159.7156 506.1802 140.062 483.109 140.062 505.692 99.9006"/>
  <path class="cls-1" d="M436.7223,54.7346h-6.2264c-6.2252,0-10.8636,4.8826-10.8636,10.9856,0,5.9812,4.6384,10.9871,10.8636,10.9871h6.2264c6.2253,0,10.8636-5.0059,10.8636-10.9871,0-6.103-4.6383-10.9856-10.8636-10.9856Z"/>
  <path class="cls-2" d="M685.1366,76.3411h-26.3669c-1.7087,0-2.5632.4883-3.4177,1.3428l-6.1045,6.3472-.8545-4.0281c-.6104-2.4412-2.197-3.6619-4.6384-3.6619h-28.0759v-14.2827c0-2.6853-2.3203-4.7605-4.6395-4.7605h-27.0994c-1.4647,0-2.4413.6104-3.2958,1.4648l-14.7709,14.7698c-.7323.7335-1.3427,1.9541-1.3427,3.2969v3.2957c-5.2488-3.2957-12.2076-5.3708-19.8977-5.3708-11.8413,0-23.9257,3.9061-33.4478,16.7229l-.7324.9764v-11.474c0-2.3192-2.0752-4.6384-4.7605-4.6384h-57.4957c2.6854-3.1748,3.9061-6.4706,3.9061-10.6208,0-8.9106-6.9578-15.6252-15.9905-15.6252h-5.1279c-4.7604,0-8.6665,1.8308-11.9622,5.1279l-15.8695,15.8682c-1.2206,1.2207-2.1971,2.5634-2.9296,4.0293-1.2207-.1221-2.6853-.2441-4.1501-.2441-6.4706,0-13.062,2.0752-18.677,6.5916-3.9072-4.7605-9.0339-6.5916-15.8694-6.5916-5.4929,0-10.865,1.5869-15.5034,5.3708-.2441-2.8074-1.4647-3.906-4.0281-3.906h-30.0302c2.6854-3.1748,3.9073-6.4706,3.9073-10.6208,0-8.9106-6.959-15.6252-15.9917-15.6252h-5.1278c-4.7605,0-8.6666,1.8308-11.9623,5.1279l-10.3766,10.2533v-3.4178c0-2.4412-2.0751-4.6384-4.7606-4.6384h-27.0992c-1.4647,0-2.5634.6104-3.2958,1.4648l-14.7709,14.6477c-.4883.4894-1.3427,1.9541-1.3427,3.2969v5.0046c-5.1267-4.7605-11.1091-7.0798-18.0667-7.0798-4.5165,0-10.0105,1.4648-13.9165,5.3708-.4883-3.1736-1.5869-3.7839-3.662-3.7839h-26.1229c-1.3427,0-2.4412.4883-3.2957,1.3428l-3.0527,3.0515c-7.8121-16.1136-22.583-25.2684-41.0159-25.2684-12.8168,0-24.1699,4.2723-36.01,15.9904l-9.7664,9.7664c-10.8638,10.8636-16.2357,26.1228-16.2357,43.8232,0,33.448,18.5549,55.5427,47.2423,55.5427,12.8167,0,24.1699-4.7605,32.9585-13.5503l10.1324-10.2534v42.3586c0,2.6853,2.0751,4.7605,4.7605,4.7605h26.9773c1.5868,0,2.6854-.6104,3.4191-1.3428l14.6476-14.7709c.9764-.9766,1.4647-2.0751,1.4647-3.2958v-4.3943c6.5928-.8545,11.9635-3.5398,16.3578-8.1794l13.3063-13.3049c1.5867,13.7932,10.4973,20.5078,26.7332,20.5078h243.4097c1.7089,0,2.6853-.6102,3.4177-1.3427l7.4473-7.5692c7.3237,6.959,16.8459,10.3767,27.5874,10.3767,10.865,0,20.7522-4.1501,27.589-10.9869l7.0797-7.2018v12.0854c0,2.5635,2.0751,4.6384,4.6384,4.6384h33.0817v20.0198c0,2.6853,2.0751,4.7605,4.7605,4.7605h17.9445c8.5444,0,15.7476-2.6854,20.2639-7.2018l14.5269-14.5267c3.4177-3.5399,6.2253-8.5458,7.9341-14.8931l22.0947-85.0833c.8545-3.2958-.7324-5.8591-4.6384-5.8591ZM112.0121,161.0581c-25.8788,0-42.6028-19.6533-42.6028-50.7821,0-30.6393,16.724-50.0486,42.6028-50.0486,25.7578,0,42.4805,19.4093,42.4805,50.0486,0,31.1288-16.7227,50.7821-42.4805,50.7821ZM202.1012,160.936c-6.1033,0-11.2312-2.197-15.2593-6.3472v29.9067h-27.0994v-85.3274c0-6.1045-.1221-12.0856-.3662-18.1887h26.4891c.2441,2.1971.4882,4.6384.6102,7.3237,3.9061-5.6149,9.4001-8.7886,16.2358-8.7886,16.968,0,26.489,15.2593,26.489,41.1379,0,25.5127-9.7651,40.2834-27.0994,40.2834ZM278.2738,100.6331h-10.6208v36.6215c0,2.0751.9766,2.8075,3.0518,2.8075h7.5691v19.6536h-17.5784c-14.0386,0-20.1417-5.8604-20.1417-20.1418v-38.9407h-9.5222v-19.6536h9.5222v-18.9211h27.0992v18.9211h10.6208v19.6536ZM310.9882,159.7155h-27.0994v-78.736h27.0994v78.736ZM300.4906,76.7073h-6.2264c-6.2252,0-10.8636-5.0059-10.8636-10.9871,0-6.103,4.6384-10.9856,10.8636-10.9856h6.2264c6.2253,0,10.8638,4.8826,10.8638,10.9856,0,5.9812-4.6384,10.9871-10.8638,10.9871ZM414.5043,159.7156h-27.0994v-55.9089c0-2.8075-1.2207-3.906-3.906-3.906-1.9531,0-3.5399.7324-4.3943,1.953v57.8619h-27.1006v-55.9089c0-2.8075-1.2207-3.906-3.9061-3.906-1.953,0-3.5398.7324-4.3943,1.953v57.8619h-27.0992v-78.7361h25.7566v7.3237c5.4929-5.8589,11.718-8.6665,18.3108-8.6665,7.6899,0,12.9387,2.4414,15.6254,8.6665,5.7369-5.8589,12.5726-8.6665,19.7755-8.6665,11.9623,0,18.4316,6.7136,18.4316,20.2639v59.8149ZM447.2199,159.7155h-27.0994v-78.736h27.0994v78.736ZM436.7223,76.7073h-6.2264c-6.2252,0-10.8636-5.0059-10.8636-10.9871,0-6.103,4.6384-10.9856,10.8636-10.9856h6.2264c6.2253,0,10.8636,4.8826,10.8636,10.9856,0,5.9812-4.6383,10.9871-10.8636,10.9871ZM506.1802,159.7156h-53.3455v-18.0668l23.0725-41.0157h-23.0725v-19.6536h52.8573v18.9211l-22.583,40.1614h23.0712v19.6536ZM578.6909,125.1689h-43.213c.4883,10.7429,3.2958,16.8461,8.3003,16.8461,3.662,0,6.8357-4.0281,7.8123-10.8649h26.8564c-2.1973,17.5784-15.3813,29.908-33.9363,29.908-22.2168,0-36.2554-15.6252-36.2554-40.7717,0-24.658,14.5269-40.7717,36.3774-40.7717,22.9492,0,37.1099,19.0432,34.0582,45.6543ZM611.0391,159.7155h-27.0994V62.0583h27.0994v97.6571ZM663.0419,165.9407c-3.2957,12.6959-10.0105,18.5549-23.4375,18.5549h-19.2871v-19.7755h14.8928c1.2207,0,2.1973-.7323,2.4414-2.0751l.7322-3.1736-22.2168-78.4919h27.5876l4.8826,22.9492,3.2959,21.2402,2.8074-21.6064,4.0293-22.583h26.3669l-22.0947,84.9612Z"/>
  <path class="cls-2" d="M544.0223,98.4358c-4.0281,0-7.2017,4.5164-8.5444,12.0844h16.7228c-1.2206-7.6901-4.1503-12.0844-8.1783-12.0844Z"/>
  <path class="cls-2" d="M193.7997,99.4124c-4.8826,0-7.5681,8.5444-7.5681,21.4844,0,12.8167,2.6855,20.5081,7.5681,20.63,5.0057-.1219,7.8132-7.9353,7.8132-20.63,0-13.062-2.8075-21.6064-7.8132-21.4844Z"/>
  <path class="cls-2" d="M111.89,83.0546c-7.6901,0-12.8167,10.4974-12.8167,27.2214,0,17.2123,5.1266,27.9551,12.8167,27.9551,7.5691,0,12.8179-10.7428,12.8179-27.9551,0-16.724-5.2488-27.2214-12.8179-27.2214Z"/>
</svg>